<svg width="151" height="33" viewBox="0 0 151 33" fill="none" xmlns="http://www.w3.org/2000/svg">
<path opacity="0.3" fill-rule="evenodd" clip-rule="evenodd" d="M21.4329 26.2319L24.0347 30.7678C24.4762 31.5377 23.9243 32.4999 23.0413 32.4999L10.6472 32.5C9.8274 32.5 9.06998 32.0598 8.66029 31.3453L0.807374 17.6546C0.397542 16.94 0.397542 16.0597 0.807374 15.3452L8.66029 1.6547C9.06998 0.940084 9.8274 0.5 10.6472 0.5H26.3529C27.1724 0.5 27.93 0.940084 28.3398 1.6547L36.1927 15.3452C36.6024 16.0597 36.6024 16.94 36.1927 17.6546L29.9956 28.4584C29.5541 29.2283 28.4502 29.2283 28.0086 28.4584L25.3884 23.8904C25.1451 23.4661 25.1975 22.9362 25.5119 22.5619C26.8628 20.9535 27.6775 18.8738 27.6775 16.6027C27.6775 11.3562 23.3321 7.13129 18.0663 7.37507C13.3648 7.59288 9.54864 11.4341 9.3324 16.1667C9.09034 21.4666 13.2876 25.8403 18.5 25.8403C19.0846 25.8403 19.6561 25.784 20.2101 25.678C20.695 25.5854 21.1861 25.8017 21.4329 26.2319ZM18.5 11.9257C21.0344 11.9257 23.0887 13.9936 23.0887 16.5445C23.0887 19.0955 21.0344 21.1633 18.5 21.1633C15.9657 21.1633 13.9112 19.0955 13.9112 16.5445C13.9112 13.9936 15.9657 11.9257 18.5 11.9257Z" fill="#474747"/>
<path opacity="0.3" fill-rule="evenodd" clip-rule="evenodd" d="M46.6474 18.1843H43.9592C43.9196 18.1843 43.8875 18.1522 43.8875 18.1125V6.26655C43.8875 6.22698 43.9196 6.19494 43.9592 6.19494H46.6474C46.687 6.19494 46.7191 6.22698 46.7191 6.26655V18.1125C46.7191 18.1522 46.687 18.1843 46.6474 18.1843ZM43.5 2.31487C43.5 1.31187 44.3121 0.5 45.2914 0.5C46.2945 0.5 47.1065 1.31187 47.1065 2.31487C47.1065 3.31787 46.2945 4.10592 45.2914 4.10592C44.3121 4.10592 43.5 3.31787 43.5 2.31487ZM55.6321 8.45977C53.884 8.45977 52.3329 9.76464 52.3329 12.1773C52.3329 14.5899 53.884 15.944 55.6814 15.944C57.5075 15.944 58.3723 14.7012 58.6647 13.7947C58.6769 13.7569 58.7159 13.7393 58.7534 13.7528L61.1298 14.6148C61.1668 14.6284 61.1879 14.6685 61.1759 14.7059C60.5875 16.5584 58.7954 18.5534 55.6814 18.5534C52.1605 18.5534 49.4768 15.8208 49.4768 12.1773C49.4768 8.48443 52.1605 5.82564 55.6076 5.82564C58.7965 5.82564 60.5655 7.79905 61.0812 9.69959C61.0911 9.73637 61.07 9.77495 61.0342 9.78805L58.6086 10.6742C58.5699 10.6882 58.5293 10.6679 58.5183 10.6283C58.2295 9.58884 57.4131 8.45977 55.6321 8.45977ZM68.7556 15.9931C70.5284 15.9931 72.1042 14.6884 72.1042 12.1773C72.1042 9.69067 70.5284 8.41059 68.7556 8.41059C67.0075 8.41059 65.407 9.69067 65.407 12.1773C65.407 14.6639 67.0075 15.9931 68.7556 15.9931ZM68.7556 5.82564C72.3503 5.82564 74.985 8.50908 74.985 12.1773C74.985 15.8701 72.3503 18.5534 68.7556 18.5534C65.1855 18.5534 62.5509 15.8701 62.5509 12.1773C62.5509 8.50908 65.1855 5.82564 68.7556 5.82564ZM80.5986 11.2664V18.1125C80.5986 18.1522 80.5666 18.1843 80.5272 18.1843H77.8141C77.7747 18.1843 77.7425 18.1522 77.7425 18.1125V6.26655C77.7425 6.22698 77.7747 6.19494 77.8141 6.19494H80.4533C80.4929 6.19494 80.5248 6.22698 80.5248 6.26655C80.5248 6.74673 81.0776 7.00918 81.4549 6.71204C82.2177 6.11178 83.1668 5.8503 84.0703 5.8503C87.0004 5.8503 88.4038 7.96746 88.4038 10.6016V18.1125C88.4038 18.1522 88.3717 18.1843 88.3322 18.1843H85.6194C85.5797 18.1843 85.5477 18.1522 85.5477 18.1125V11.094C85.5477 9.61684 84.8828 8.43525 83.0855 8.43525C81.4605 8.43525 80.5986 9.69067 80.5986 11.2664ZM90.8794 14.9173L93.2263 14.2667C93.2675 14.2553 93.3068 14.2829 93.3121 14.3254C93.4427 15.3753 94.2523 16.2886 95.7411 16.2886C96.923 16.2886 97.5385 15.6485 97.5385 14.9099C97.5385 14.2698 97.0954 13.7775 96.1351 13.5805L94.3623 13.1867C92.2448 12.7189 91.1369 11.3402 91.1369 9.69067C91.1369 7.59817 93.0573 5.82564 95.5442 5.82564C98.8343 5.82564 99.9376 7.91731 100.162 9.11116C100.169 9.14836 100.145 9.18179 100.108 9.19224L97.8341 9.84196C97.794 9.85338 97.7558 9.83193 97.7484 9.79097C97.6251 9.09932 97.0899 8.06595 95.5442 8.06595C94.5347 8.06595 93.8206 8.70606 93.8206 9.44466C93.8206 10.0846 94.2884 10.5524 95.0271 10.7001L96.8491 11.0695C99.1144 11.5618 100.296 12.9404 100.296 14.7129C100.296 16.5347 98.8189 18.5534 95.7657 18.5534C92.3462 18.5534 91.0048 16.356 90.8242 14.996C90.8194 14.9596 90.8439 14.927 90.8794 14.9173ZM108.202 8.45977C106.454 8.45977 104.903 9.76464 104.903 12.1773C104.903 14.5899 106.454 15.944 108.251 15.944C110.078 15.944 110.942 14.7012 111.235 13.7947C111.247 13.7569 111.286 13.7393 111.324 13.7528L113.7 14.6148C113.737 14.6284 113.758 14.6685 113.746 14.7059C113.158 16.5584 111.366 18.5534 108.251 18.5534C104.731 18.5534 102.047 15.8208 102.047 12.1773C102.047 8.48443 104.731 5.82564 108.178 5.82564C111.367 5.82564 113.136 7.79905 113.651 9.69959C113.661 9.73637 113.64 9.77495 113.604 9.78805L111.179 10.6742C111.14 10.6882 111.099 10.6679 111.088 10.6283C110.8 9.58884 109.983 8.45977 108.202 8.45977ZM121.326 15.9931C123.098 15.9931 124.674 14.6884 124.674 12.1773C124.674 9.69067 123.098 8.41059 121.326 8.41059C119.578 8.41059 117.977 9.69067 117.977 12.1773C117.977 14.6639 119.578 15.9931 121.326 15.9931ZM121.326 5.82564C124.92 5.82564 127.555 8.50908 127.555 12.1773C127.555 15.8701 124.92 18.5534 121.326 18.5534C117.755 18.5534 115.121 15.8701 115.121 12.1773C115.121 8.50908 117.755 5.82564 121.326 5.82564ZM138.065 18.1759C137.987 17.7422 137.488 17.5206 137.128 17.7757C136.434 18.2683 135.502 18.5289 134.57 18.5289C131.714 18.5289 130.039 16.4116 130.039 13.7528V6.26655C130.039 6.22698 130.071 6.19494 130.111 6.19494H132.824C132.863 6.19494 132.896 6.22698 132.896 6.26655V13.236C132.896 14.7129 133.585 15.9686 135.308 15.9686C136.958 15.9686 137.82 14.8607 137.82 13.285V6.26655C137.82 6.22698 137.852 6.19494 137.891 6.19494H140.604C140.644 6.19494 140.676 6.22698 140.676 6.26655V15.9931C140.676 16.9219 140.742 17.6535 140.791 18.1056C140.795 18.1476 140.762 18.1843 140.72 18.1843H138.066C138.066 18.1815 138.065 18.1788 138.065 18.1759ZM147.989 2.59836V6.12334C147.989 6.16276 148.021 6.19494 148.06 6.19494H150.404C150.443 6.19494 150.475 6.22698 150.475 6.26655V8.65898C150.475 8.69854 150.443 8.73072 150.404 8.73072H148.06C148.021 8.73072 147.989 8.76262 147.989 8.80218V14.2944C147.989 15.3532 148.456 15.7961 149.515 15.7961C149.909 15.7961 150.377 15.7223 150.5 15.6977V18.0125C150.5 18.0419 150.488 18.0665 150.461 18.0774C150.253 18.1604 149.717 18.3321 148.752 18.3321C146.536 18.3321 145.157 17.0025 145.157 14.7622V8.80218C145.157 8.76262 145.125 8.73072 145.086 8.73072H143.013C142.973 8.73072 142.941 8.69854 142.941 8.65898V6.19494H143.557C144.837 6.19494 145.403 5.38251 145.403 4.32393V2.59836C145.403 2.55879 145.435 2.52675 145.475 2.52675H147.917C147.957 2.52675 147.989 2.55879 147.989 2.59836Z" fill="#474747"/>
</svg>
