<svg width="77" height="77" viewBox="0 0 77 77" fill="none" xmlns="http://www.w3.org/2000/svg">
<path d="M32.477 6.39412C35.8549 3.19437 41.1451 3.19437 44.523 6.39412C46.6558 8.41457 49.5856 9.36648 52.4987 8.98559C57.1122 8.38239 61.3921 11.4919 62.244 16.066C62.782 18.9543 64.5927 21.4464 67.1733 22.8506C71.2603 25.0743 72.895 30.1056 70.8957 34.3069C69.6332 36.9598 69.6332 40.0402 70.8957 42.6931C72.895 46.8944 71.2603 51.9257 67.1733 54.1494C64.5927 55.5536 62.782 58.0457 62.244 60.934C61.3921 65.5081 57.1122 68.6176 52.4987 68.0144C49.5856 67.6335 46.6558 68.5854 44.523 70.6059C41.1451 73.8056 35.8549 73.8056 32.477 70.6059C30.3441 68.5854 27.4144 67.6335 24.5013 68.0144C19.8878 68.6176 15.6079 65.5081 14.756 60.934C14.218 58.0457 12.4073 55.5536 9.82669 54.1494C5.73974 51.9257 4.10497 46.8944 6.1043 42.6931C7.36675 40.0402 7.36675 36.9598 6.1043 34.3069C4.10497 30.1056 5.73974 25.0743 9.82669 22.8506C12.4073 21.4464 14.218 18.9543 14.756 16.066C15.6079 11.4919 19.8878 8.38239 24.5013 8.98559C27.4144 9.36648 30.3441 8.41457 32.477 6.39412Z" stroke="black"/>
<path d="M17.8607 24H19.1543V18.0124H17.8607V24ZM19.9884 21.69C19.9884 23.0298 21.0972 24.0924 22.4555 24.0924C23.1208 24.0924 23.7399 23.8799 24.1926 23.5288L23.5181 22.577C23.2871 22.7803 22.8898 22.8912 22.5202 22.8912C21.7348 22.8912 21.245 22.3553 21.245 21.69C21.245 20.9877 21.7902 20.4888 22.4832 20.4888C22.8436 20.4888 23.1392 20.5719 23.3425 20.7475L24.1002 19.8512C23.6659 19.5001 23.0838 19.2876 22.4555 19.2876C21.0972 19.2876 19.9884 20.3594 19.9884 21.69ZM24.4067 21.69C24.4067 23.0206 25.5155 24.0924 26.8737 24.0924C28.232 24.0924 29.3408 23.0206 29.3408 21.69C29.3408 20.3594 28.232 19.2876 26.8737 19.2876C25.5155 19.2876 24.4067 20.3594 24.4067 21.69ZM25.6633 21.69C25.6633 21.0247 26.2085 20.4888 26.8737 20.4888C27.539 20.4888 28.0842 21.0247 28.0842 21.69C28.0842 22.3645 27.539 22.8912 26.8737 22.8912C26.2085 22.8912 25.6633 22.3645 25.6633 21.69ZM30.0756 24H31.3137V21.69C31.3137 20.9785 31.7203 20.4888 32.3579 20.4888C33.0693 20.4888 33.1525 20.8861 33.1525 21.5976V24H34.3999V21.459C34.3999 20.1839 34.0765 19.2876 32.7552 19.2876C32.1546 19.2876 31.6556 19.5278 31.3137 19.9806V19.38H30.0756V24ZM35.0941 23.2793C35.4175 23.5472 36.1012 24.0924 37.5242 24.0924C38.7254 24.0924 39.9913 23.5195 39.9913 22.2259C39.9913 21.0617 38.8733 20.5719 37.709 20.3132C37.0252 20.1654 36.6002 20.0175 36.6002 19.6387C36.6002 19.1675 37.21 19.0658 37.5334 19.0658C38.1433 19.0658 38.6792 19.2044 39.2521 19.5555L39.7233 18.5576C39.1227 18.1603 38.439 17.92 37.5334 17.92C36.3877 17.92 35.2974 18.4929 35.2974 19.6479C35.2974 20.8861 36.4708 21.2557 37.5796 21.5052C38.1341 21.6253 38.6885 21.7824 38.6885 22.2259C38.6885 22.6325 38.1618 22.9466 37.5334 22.9466C36.6187 22.9466 36.0458 22.6325 35.5561 22.2813L35.0941 23.2793ZM40.549 21.69C40.549 23.0298 41.6578 24.0924 43.0161 24.0924C43.6813 24.0924 44.3004 23.8799 44.7532 23.5288L44.0787 22.577C43.8477 22.7803 43.4503 22.8912 43.0807 22.8912C42.2953 22.8912 41.8056 22.3553 41.8056 21.69C41.8056 20.9877 42.3508 20.4888 43.0438 20.4888C43.4041 20.4888 43.6998 20.5719 43.9031 20.7475L44.6608 19.8512C44.2265 19.5001 43.6444 19.2876 43.0161 19.2876C41.6578 19.2876 40.549 20.3594 40.549 21.69ZM44.9672 21.69C44.9672 23.0206 46.076 24.0924 47.4343 24.0924C48.7926 24.0924 49.9014 23.0206 49.9014 21.69C49.9014 20.3594 48.7926 19.2876 47.4343 19.2876C46.076 19.2876 44.9672 20.3594 44.9672 21.69ZM46.2239 21.69C46.2239 21.0247 46.769 20.4888 47.4343 20.4888C48.0996 20.4888 48.6448 21.0247 48.6448 21.69C48.6448 22.3645 48.0996 22.8912 47.4343 22.8912C46.769 22.8912 46.2239 22.3645 46.2239 21.69ZM50.5437 21.9949C50.5437 23.0021 50.8764 24.0924 52.2439 24.0924C52.7798 24.0924 53.288 23.8522 53.6299 23.3994V24H54.8681V19.38H53.6299V21.6345C53.6299 22.4846 53.2695 22.8912 52.632 22.8912C51.9759 22.8912 51.7911 22.4939 51.7911 21.7824V19.38H50.5437V21.9949ZM56.0612 22.5031C56.0612 23.5195 56.4678 24.0924 57.5119 24.0924C58.0293 24.0924 58.4174 23.8984 58.6484 23.7505L58.2973 22.8173C58.2973 22.8173 58.0109 23.0206 57.6875 23.0206C57.4749 23.0206 57.2994 22.8912 57.2994 22.5401V20.3779H58.5653V19.38H57.2901V18.2619L56.052 18.5391V19.38H55.3774V20.3779H56.0612V22.5031Z" fill="black"/>
<path d="M19.3542 58H24.1959V56.8912H20.6478V55.4405H23.9003V54.3409H20.6478V53.1213H24.0758V52.0124H19.3542V58ZM24.4272 58H25.8039L26.3583 57.1222C26.5524 56.8173 26.7279 56.4477 26.7279 56.4477C26.7279 56.4477 26.922 56.845 27.0975 57.1222L27.6519 58H29.0287L27.5041 55.6438L29.0287 53.38H27.6519L27.0513 54.3225C26.9127 54.535 26.7279 54.8676 26.7279 54.8676C26.7279 54.8676 26.5339 54.5257 26.4045 54.3225L25.8039 53.38H24.4272L25.9518 55.6438L24.4272 58ZM29.1215 55.69C29.1215 57.0298 30.2304 58.0924 31.5886 58.0924C32.2539 58.0924 32.873 57.8799 33.3258 57.5288L32.6512 56.577C32.4202 56.7803 32.0229 56.8912 31.6533 56.8912C30.8679 56.8912 30.3782 56.3553 30.3782 55.69C30.3782 54.9877 30.9234 54.4888 31.6164 54.4888C31.9767 54.4888 32.2724 54.5719 32.4757 54.7475L33.2334 53.8512C32.7991 53.5001 32.217 53.2876 31.5886 53.2876C30.2304 53.2876 29.1215 54.3594 29.1215 55.69ZM33.8791 58H35.1173V51.92H33.8791V58ZM35.9942 55.9949C35.9942 57.0021 36.3268 58.0924 37.6944 58.0924C38.2303 58.0924 38.7385 57.8522 39.0804 57.3994V58H40.3185V53.38H39.0804V55.6345C39.0804 56.4846 38.72 56.8912 38.0825 56.8912C37.4264 56.8912 37.2416 56.4939 37.2416 55.7824V53.38H35.9942V55.9949ZM41.0589 57.4456C41.2437 57.6119 41.9275 58.0924 42.9439 58.0924C43.7755 58.0924 44.9674 57.732 44.9674 56.577C44.9674 55.6068 44.0527 55.2557 43.1749 55.0801C42.8422 55.0155 42.5281 54.9231 42.5281 54.7013C42.5281 54.4611 42.8238 54.3317 43.0825 54.3317C43.5445 54.3317 43.9141 54.4149 44.3484 54.6366L44.7826 53.7311C44.256 53.4631 43.8124 53.2876 43.0825 53.2876C42.2509 53.2876 41.2899 53.7773 41.2899 54.7198C41.2899 55.6345 42.0106 55.9302 42.9069 56.1427C43.3135 56.2351 43.7293 56.346 43.7293 56.5955C43.7293 56.9466 43.2396 57.0483 42.9439 57.0483C42.2509 57.0483 41.7704 56.7249 41.4932 56.5401L41.0589 57.4456ZM45.7082 58H46.9463V53.38H45.7082V58ZM45.5973 52.188C45.5973 52.5853 45.9299 52.918 46.3273 52.918C46.7338 52.918 47.0665 52.5853 47.0665 52.188C47.0665 51.7814 46.7338 51.4488 46.3273 51.4488C45.9299 51.4488 45.5973 51.7814 45.5973 52.188ZM49.2278 58H50.4474L52.2677 53.38H51.0296L50.3088 55.3019C50.0409 56.0226 49.8376 56.7618 49.8376 56.7618C49.8376 56.7618 49.6436 56.0226 49.3756 55.3019L48.6456 53.38H47.4075L49.2278 58ZM53.5854 55.2187C53.7425 54.6828 54.186 54.3594 54.6572 54.3594C55.1932 54.3594 55.6552 54.6736 55.7568 55.2187H53.5854ZM52.3195 55.6992C52.3195 57.2793 53.5207 58.0924 54.8513 58.0924C55.4334 58.0924 56.0525 57.9353 56.5976 57.6212L56.1356 56.6879C55.766 56.9004 55.2948 57.0021 54.8698 57.0021C54.2969 57.0021 53.7702 56.7618 53.6039 56.115H56.9303C56.9303 56.115 56.9672 55.8933 56.9672 55.653C56.9672 54.3594 55.9693 53.2876 54.7311 53.2876C53.3544 53.2876 52.3195 54.3687 52.3195 55.6992Z" fill="black"/>
<rect x="28.9415" y="41.8291" width="18.5109" height="5.28882" rx="1" fill="black"/>
<path fill-rule="evenodd" clip-rule="evenodd" d="M38.2768 40.378H29.9848C29.5238 40.378 29.1225 40.0628 29.0133 39.6149L27.0298 31.4827C26.8299 30.6629 27.6725 29.9793 28.4335 30.3439L32.258 32.1765C32.6602 32.3692 33.1413 32.2723 33.4375 31.939L37.5295 27.3356C37.9272 26.8881 38.6265 26.8881 39.0243 27.3356L43.1162 31.939C43.4124 32.2723 43.8936 32.3692 44.2957 32.1765L48.1202 30.3439C48.8812 29.9793 49.7238 30.6629 49.5239 31.4827L47.5404 39.6149C47.4312 40.0628 47.0299 40.378 46.5689 40.378H38.2769H38.2768Z" fill="black"/>
<path d="M56.5 34.8896L57.2641 36.3379L58.8776 36.6171L57.7364 37.7914L57.9695 39.4122L56.5 38.6896L55.0305 39.4122L55.2636 37.7914L54.1224 36.6171L55.7359 36.3379L56.5 34.8896Z" fill="black"/>
<path d="M19.5 34.8896L20.2641 36.3379L21.8776 36.6171L20.7364 37.7914L20.9695 39.4122L19.5 38.6896L18.0305 39.4122L18.2636 37.7914L17.1224 36.6171L18.7359 36.3379L19.5 34.8896Z" fill="black"/>
</svg>
