<svg width="114" height="60" viewBox="0 0 114 60" fill="none" xmlns="http://www.w3.org/2000/svg">
<circle cx="3" cy="3" r="3" fill="#F8EAE9"/>
<circle cx="3" cy="39" r="3" fill="#F8EAE9"/>
<circle cx="3" cy="21" r="3" fill="#F8EAE9"/>
<circle cx="3" cy="57" r="3" fill="#F8EAE9"/>
<circle cx="21" cy="3" r="3" fill="#F8EAE9"/>
<circle cx="21" cy="39" r="3" fill="#F8EAE9"/>
<circle cx="21" cy="21" r="3" fill="#F8EAE9"/>
<circle cx="21" cy="57" r="3" fill="#F8EAE9"/>
<circle cx="39" cy="3" r="3" fill="#F8EAE9"/>
<circle cx="39" cy="39" r="3" fill="#F8EAE9"/>
<circle cx="39" cy="21" r="3" fill="#F8EAE9"/>
<circle cx="39" cy="57" r="3" fill="#F8EAE9"/>
<circle cx="57" cy="3" r="3" fill="#F8EAE9"/>
<circle cx="57" cy="39" r="3" fill="#F8EAE9"/>
<circle cx="57" cy="21" r="3" fill="#F8EAE9"/>
<circle cx="57" cy="57" r="3" fill="#F8EAE9"/>
<circle cx="75" cy="3" r="3" fill="#F8EAE9"/>
<circle cx="75" cy="39" r="3" fill="#F8EAE9"/>
<circle cx="75" cy="21" r="3" fill="#F8EAE9"/>
<circle cx="75" cy="57" r="3" fill="#F8EAE9"/>
<circle cx="93" cy="3" r="3" fill="#F8EAE9"/>
<circle cx="93" cy="39" r="3" fill="#F8EAE9"/>
<circle cx="93" cy="21" r="3" fill="#F8EAE9"/>
<circle cx="93" cy="57" r="3" fill="#F8EAE9"/>
<circle cx="111" cy="3" r="3" fill="#F8EAE9"/>
<circle cx="111" cy="39" r="3" fill="#F8EAE9"/>
<circle cx="111" cy="21" r="3" fill="#F8EAE9"/>
<circle cx="111" cy="57" r="3" fill="#F8EAE9"/>
</svg>
