<svg width="131" height="60" viewBox="0 0 131 60" fill="none" xmlns="http://www.w3.org/2000/svg">
<ellipse cx="2.97368" cy="3" rx="2.97368" ry="3" fill="#C3E1FF"/>
<ellipse cx="2.97368" cy="39" rx="2.97368" ry="3" fill="#C3E1FF"/>
<ellipse cx="2.97368" cy="21" rx="2.97368" ry="3" fill="#C3E1FF"/>
<ellipse cx="2.97368" cy="57" rx="2.97368" ry="3" fill="#C3E1FF"/>
<ellipse cx="20.8158" cy="3" rx="2.97368" ry="3" fill="#C3E1FF"/>
<ellipse cx="20.8158" cy="39" rx="2.97368" ry="3" fill="#C3E1FF"/>
<ellipse cx="20.8158" cy="21" rx="2.97368" ry="3" fill="#C3E1FF"/>
<ellipse cx="20.8158" cy="57" rx="2.97368" ry="3" fill="#C3E1FF"/>
<ellipse cx="38.6579" cy="3" rx="2.97368" ry="3" fill="#C3E1FF"/>
<ellipse cx="38.6579" cy="39" rx="2.97368" ry="3" fill="#C3E1FF"/>
<ellipse cx="38.6579" cy="21" rx="2.97368" ry="3" fill="#C3E1FF"/>
<ellipse cx="38.6579" cy="57" rx="2.97368" ry="3" fill="#C3E1FF"/>
<ellipse cx="56.5" cy="3" rx="2.97368" ry="3" fill="#C3E1FF"/>
<ellipse cx="56.5" cy="39" rx="2.97368" ry="3" fill="#C3E1FF"/>
<ellipse cx="56.5" cy="21" rx="2.97368" ry="3" fill="#C3E1FF"/>
<ellipse cx="56.5" cy="57" rx="2.97368" ry="3" fill="#C3E1FF"/>
<ellipse cx="74.3421" cy="3" rx="2.97368" ry="3" fill="#C3E1FF"/>
<ellipse cx="74.3421" cy="39" rx="2.97368" ry="3" fill="#C3E1FF"/>
<ellipse cx="74.3421" cy="21" rx="2.97368" ry="3" fill="#C3E1FF"/>
<ellipse cx="74.3421" cy="57" rx="2.97368" ry="3" fill="#C3E1FF"/>
<ellipse cx="92.1842" cy="3" rx="2.97368" ry="3" fill="#C3E1FF"/>
<ellipse cx="92.1842" cy="39" rx="2.97368" ry="3" fill="#C3E1FF"/>
<ellipse cx="92.1842" cy="21" rx="2.97368" ry="3" fill="#C3E1FF"/>
<ellipse cx="92.1842" cy="57" rx="2.97368" ry="3" fill="#C3E1FF"/>
<ellipse cx="110.026" cy="3" rx="2.97368" ry="3" fill="#C3E1FF"/>
<ellipse cx="127.974" cy="3" rx="2.97368" ry="3" fill="#C3E1FF"/>
<ellipse cx="110.026" cy="39" rx="2.97368" ry="3" fill="#C3E1FF"/>
<ellipse cx="127.974" cy="39" rx="2.97368" ry="3" fill="#C3E1FF"/>
<ellipse cx="110.026" cy="21" rx="2.97368" ry="3" fill="#C3E1FF"/>
<ellipse cx="127.974" cy="21" rx="2.97368" ry="3" fill="#C3E1FF"/>
<ellipse cx="110.026" cy="57" rx="2.97368" ry="3" fill="#C3E1FF"/>
<ellipse cx="127.974" cy="57" rx="2.97368" ry="3" fill="#C3E1FF"/>
</svg>
